<?xml version="1.0" encoding="UTF-8" standalone="no"?>
<!-- Created with Inkscape (http://www.inkscape.org/) -->

<svg
   width="100"
   height="100"
   viewBox="0 0 26.458333 26.458333"
   version="1.1"
   id="svg1"
   inkscape:version="1.4 (e7c3feb100, 2024-10-09)"
   sodipodi:docname="50-50.svg"
   inkscape:export-filename="50-50.png"
   inkscape:export-xdpi="192"
   inkscape:export-ydpi="192"
   xmlns:inkscape="http://www.inkscape.org/namespaces/inkscape"
   xmlns:sodipodi="http://sodipodi.sourceforge.net/DTD/sodipodi-0.dtd"
   xmlns="http://www.w3.org/2000/svg"
   xmlns:svg="http://www.w3.org/2000/svg">
  <sodipodi:namedview
     id="namedview1"
     pagecolor="#ffffff"
     bordercolor="#000000"
     borderopacity="0.25"
     inkscape:showpageshadow="2"
     inkscape:pageopacity="0.0"
     inkscape:pagecheckerboard="0"
     inkscape:deskcolor="#d1d1d1"
     inkscape:document-units="px"
     inkscape:zoom="2.055913"
     inkscape:cx="-6.0800239"
     inkscape:cy="146.65018"
     inkscape:window-width="1720"
     inkscape:window-height="1371"
     inkscape:window-x="0"
     inkscape:window-y="32"
     inkscape:window-maximized="0"
     inkscape:current-layer="layer1" />
  <defs
     id="defs1">
    <rect
       x="13.376053"
       y="25.5361"
       width="71.860214"
       height="22.842508"
       id="rect3" />
    <rect
       x="13.376053"
       y="25.5361"
       width="71.860214"
       height="22.842508"
       id="rect4" />
  </defs>
  <g
     inkscape:label="Layer 1"
     inkscape:groupmode="layer"
     id="layer1">
    <circle
       style="fill:#000000;stroke:none;stroke-width:0.79375"
       id="path1"
       cx="13.229166"
       cy="13.229166"
       r="13.229166" />
    <path
       id="circle1"
       style="fill:#ffffff;stroke:none;stroke-width:0.79375"
       d="M 13.229166,0.52916683 V 25.929166 A 12.7,12.7 0 0 1 0.5291665,13.229166 12.7,12.7 0 0 1 13.229166,0.52916683 Z" />
    <path
       id="path2"
       style="fill:#000000;fill-opacity:1;stroke:none;stroke-width:0.396875"
       d="m 13.229166,13.229166 v 12.7 a 6.3499999,6.35 0 0 1 -6.35,-6.35 6.3499999,6.35 0 0 1 6.35,-6.35 z" />
    <path
       id="path3"
       style="fill:#ffffff;fill-opacity:1;stroke:none;stroke-width:0.396875"
       d="M 13.229166,0.52916645 V 13.229166 a 6.3499999,6.35 0 0 0 6.35,-6.3499995 6.3499999,6.35 0 0 0 -6.35,-6.35000005 z" />
    <path
       style="font-weight:bold;font-size:2.46944px;letter-spacing:0.690562px;white-space:pre;fill:#1a1a1a;stroke-width:0.919636"
       d="m 13.415881,11.041984 1.101131,-0.338973 0.09494,0.308403 -0.69311,0.213366 0.0907,0.294624 0.651776,-0.200643 0.09494,0.308402 -0.651777,0.200642 0.111579,0.362452 0.716426,-0.220544 0.09494,0.308402 -1.124448,0.346149 z m 1.580591,-0.526187 0.38832,-0.276701 1.1493,0.575328 -0.658934,-0.9247426 0.329621,-0.234875 0.960732,1.3482826 -0.38832,0.276701 -1.149301,-0.575328 0.658934,0.924743 -0.329619,0.234875 z m 3.479401,-1.6722485 q -0.006,0.177446 -0.05191,0.3475494 -0.04596,0.1701036 -0.131422,0.3318843 -0.193189,0.3657226 -0.51004,0.4717397 Q 17.464669,10.100216 17.114635,9.9153209 16.760681,9.7283451 16.6727,9.4034644 16.58472,9.0785836 16.784642,8.7001143 16.861812,8.5540216 16.959706,8.4351769 17.058116,8.315352 17.174715,8.225199 l 0.30297,0.1600412 q -0.134356,0.085788 -0.232897,0.1892411 -0.09802,0.1024724 -0.162246,0.2240532 -0.119125,0.2255125 -0.05739,0.4148871 0.06127,0.1878768 0.295615,0.311662 0.232376,0.1227502 0.421012,0.071906 0.188635,-0.050847 0.303097,-0.2675345 0.03107,-0.058831 0.05063,-0.1124599 0.01909,-0.055129 0.02464,-0.1036159 L 17.835802,8.9631781 17.714088,9.193593 17.461121,9.0599664 17.771881,8.4716727 Z m -1.352916,-1.1248297 0.04539,-0.4244991 1.646174,0.1760173 -0.04539,0.4244992 z m 0.09373,-0.9989743 -0.08919,-0.4684024 1.002821,-0.8038917 -1.115451,0.2123977 -0.0757,-0.3975974 1.626335,-0.3096775 0.08919,0.4684025 -1.002822,0.8038917 1.115451,-0.2123977 0.0757,0.3975974 z M 16.791851,4.9243609 16.131463,3.9802836 16.395878,3.7953241 16.81156,4.3895749 17.064162,4.2128784 16.673268,3.6540645 16.937683,3.4691051 17.328576,4.0279189 17.639331,3.810544 17.209666,3.196303 17.474081,3.0113436 18.148451,3.975411 Z M 15.860278,3.7534123 14.872385,3.160569 15.038428,2.8838831 15.660257,3.2570492 15.818882,2.992724 15.234134,2.6418109 15.400175,2.365125 l 0.584748,0.3509131 0.195142,-0.3251773 -0.642747,-0.385719 0.166041,-0.2766859 1.00881,0.6053963 z M 13.963741,2.145423 q -0.131197,-0.028106 -0.198033,0.00861 -0.06792,0.036482 -0.09184,0.1481627 -0.02369,0.1105963 0.02351,0.1706194 0.04617,0.059786 0.17736,0.087892 l 0.175653,0.037629 0.08897,-0.415279 z M 14.20118,1.8946335 14.332416,1.2820156 14.749864,1.371442 14.403076,2.990271 13.765519,2.8536925 Q 13.445657,2.7851714 13.320105,2.6460057 13.19347,2.5066078 13.243178,2.2745721 q 0.03438,-0.1604735 0.134511,-0.246756 0.09905,-0.086515 0.265639,-0.10186 -0.08147,-0.037867 -0.133837,-0.1216619 -0.05368,-0.082943 -0.09311,-0.2376805 l -0.12813,-0.5082802 0.444554,0.095233 0.111165,0.4445418 q 0.03362,0.1342144 0.0859,0.1919096 0.0512,0.057463 0.153118,0.079297 z"
       id="text3"
       aria-label="             ENGINEER" />
    <path
       style="font-weight:bold;font-size:2.46944px;-inkscape-font-specification:'sans-serif Bold';letter-spacing:1.32292px;white-space:pre;fill:#ffffff;stroke-width:0.905589;fill-opacity:1"
       d="m 10.980032,14.981866 0.601145,-0.265958 -0.0253,-0.313583 0.386451,-0.170974 0.107377,1.735191 -0.458347,0.20278 -1.211808,-1.246569 0.386451,-0.170972 z m 0.627657,0.05306 -0.408419,0.180692 0.466132,0.503031 z m -1.9602047,1.812466 q -0.07839,0.106356 -0.07253,0.181216 0.0052,0.07574 0.09575,0.142472 0.08966,0.06608 0.162668,0.04801 0.07237,-0.0172 0.150758,-0.123556 L 10.089086,16.953141 9.7524403,16.705003 Z m -0.12885,-0.31473 -0.4966187,-0.366051 0.2494338,-0.338405 1.3123046,0.967285 -0.380953,0.516836 q -0.191125,0.259297 -0.3669027,0.315575 -0.176425,0.05715 -0.364525,-0.08149 -0.1300881,-0.09589 -0.1669432,-0.220721 -0.037503,-0.123955 0.016238,-0.279682 -0.067003,0.05778 -0.1634267,0.07081 -0.096192,0.01456 -0.2510434,-0.01276 l -0.5080909,-0.091 0.2656308,-0.360379 0.4440126,0.08039 q 0.1340783,0.02422 0.2070454,6.81e-4 0.072319,-0.02266 0.1332198,-0.105283 z m 0.133625,1.791245 -0.177121,1.492038 -0.3155394,-0.03746 0.063717,-0.536743 -1.303364,-0.154723 0.049557,-0.417466 1.3033644,0.154722 0.063846,-0.537828 z m -0.04824,2.338577 0.09661,0.409147 L 8.11399,21.446278 8.01738,21.037131 Z m 1.0809217,2.097374 -0.26168,0.224913 q -0.042,-0.141003 -0.102087,-0.25782 -0.06009,-0.116817 -0.13411,-0.202939 -0.09822,-0.114278 -0.176664,-0.141888 -0.07844,-0.02761 -0.1446917,0.02934 -0.04969,0.04271 -0.04653,0.10334 0.0047,0.06076 0.0681,0.174723 l 0.0894,0.159295 q 0.1358207,0.241786 0.1260877,0.401335 -0.0097,0.159549 -0.1654157,0.293358 -0.204541,0.175803 -0.409369,0.140192 Q 9.3247008,23.648207 9.1104644,23.398952 9.0093961,23.281363 8.9299748,23.143726 8.8505538,23.00609 8.7926628,22.849949 l 0.2691334,-0.231318 q 0.038845,0.172511 0.1012108,0.310408 0.063907,0.138011 0.1521634,0.240696 0.08968,0.104341 0.1721479,0.12993 0.08247,0.02559 0.147059,-0.02993 0.05797,-0.04982 0.05669,-0.114961 -5.61e-4,-0.06431 -0.07251,-0.198286 l -0.078724,-0.146875 q -0.1196824,-0.219658 -0.1067535,-0.380515 0.013641,-0.160027 0.1610425,-0.286719 0.184667,-0.158719 0.386531,-0.124883 0.2018637,0.03383 0.3940367,0.257425 0.08755,0.101857 0.164338,0.223033 0.07762,0.120465 0.145915,0.261906 z m 0.620979,0.386448 1.394078,0.560441 -0.118523,0.294824 -0.501504,-0.201613 -0.489572,1.217792 -0.390059,-0.15681 0.489573,-1.217791 -0.502516,-0.20202 z"
       id="text4"
       aria-label="          ARTIST" />
    <path
       style="fill:none;fill-opacity:1;stroke:#f3b789;stroke-width:0.264583;stroke-dasharray:none;stroke-opacity:0"
       d="m 13.229166,25.929166 c 0,0 -6.35,-0.267929 -6.35,-6.35 0,-6.114329 6.35,-6.349999 6.35,-6.349999 0,0 6.35,-0.300103 6.35,-6.3500005 0,-5.9533769 -6.35,-6.34999968 -6.35,-6.34999968"
       id="path5"
       sodipodi:nodetypes="cscsc" />
    <path
       style="fill:none;fill-opacity:1;stroke:#89f394;stroke-width:0.264583;stroke-dasharray:none;stroke-opacity:0"
       d="m 13.229166,0.52916682 c 0,0 6.35,0.39662278 6.35,6.34999968 0,6.0498975 -6.35,6.3500005 -6.35,6.3500005 0,0 -6.35,0.23567 -6.35,6.349999 0,6.082071 6.35,6.35 6.35,6.35"
       id="path6"
       sodipodi:nodetypes="cscsc" />
    <circle
       style="fill:#1a1a1a;fill-opacity:1;stroke:#f3b789;stroke-width:0.264583;stroke-dasharray:none;stroke-opacity:0"
       id="path7"
       cx="13.229166"
       cy="6.8412986"
       r="2.6458333" />
    <circle
       style="fill:#ffffff;fill-opacity:1;stroke:#ffffff;stroke-width:0.264583;stroke-dasharray:none;stroke-opacity:0"
       id="circle7"
       cx="13.229166"
       cy="19.62455"
       r="2.6458333" />
  </g>
</svg>
